# xmcd
#
# Track frame offsets:
#	150
#	14350
#	24342
#	38475
#	56950
#	73372
#	91070
#	108802
#	121854
#	135277
#	146035
#	158442
#	172117
#	185715
#	199950
#
# Disc length: 2932 seconds
#
# Revision: 0
# Processed by: cddbd v1.5.2PL0 Copyright (c) Steve Scherf et al.
# Submitted via: EasyCDDAExtractor 16.0.6.1
#
DISCID=ca0b720f
DTITLE=Συλλογικός δίσκος - Τραγούδια της Κέρκυρας
DYEAR=1900
DGENRE=Παραδοσιακή
TTITLE0=Μοράτη Β. - Στον Κόμπο
TTITLE1=Άνευ ερμηνευτού - Φουρλάνα
TTITLE2=Τζούμας Ν. - Περαντζάδα του γάμου
TTITLE3=Μοράτη Β. - Γκαστουριώτικος χορός
TTITLE4=Άνευ ερμηνευτού - Χορός μέσης
TTITLE5=Τζούμας Ν. - Κορακιανίτικος
TTITLE6=Μοράτη Β. - Ελενιώ
TTITLE7=Άνευ ερμηνευτού - Σπαρταλιώτικο
TTITLE8=Τζούμας Ν. - Πέρδικα
TTITLE9=Μοράτη Β. - Πέρα στους πέρα κάμπους
TTITLE10=Άνευ ερμηνευτού - Ονειρεύομαι εσένα
TTITLE11=Τζούμας Ν. - Κάτω στον Αη Γιώργη
TTITLE12=Άνευ ερμηνευτού - Με την βάρκα θα σε πάω
TTITLE13=Τζούμας Ν. - Στον Άδη θα κατέβω
TTITLE14=Άνευ ερμηνευτού - Του γάμου
EXTD=
EXTT0=
EXTT1=
EXTT2=
EXTT3=
EXTT4=
EXTT5=
EXTT6=
EXTT7=
EXTT8=
EXTT9=
EXTT10=
EXTT11=
EXTT12=
EXTT13=
EXTT14=
PLAYORDER=
